<svg width="536" height="233" viewBox="0 0 536 233" version="1.1" xmlns="http://www.w3.org/2000/svg" xmlns:xlink="http://www.w3.org/1999/xlink" xmlns:figma="http://www.figma.com/figma/ns">
<title>Capa x0020 1</title>
<desc>Created using Figma</desc>
<g id="Canvas" transform="translate(292 120)" figma:type="canvas">
<g id="Capa x0020 1" figma:type="frame">
<g id="arquitectura" figma:type="text">
<use xlink:href="#path0_fill" transform="matrix(7.44325 0 0 7.44325 -118 40)" fill="#FFFFFF" fill-opacity="0.3"/>
</g>
<g id="54564800" figma:type="frame">
<g id="54568632" figma:type="vector">
<use xlink:href="#path1_fill" transform="translate(-161.311 69.8094)" fill="#F49219"/>
</g>
<g id="54567520" figma:type="vector">
<use xlink:href="#path2_fill" transform="translate(-231.382 10.2134)" fill="#FFFFFF" fill-opacity="0.7"/>
</g>
<g id="54565104" figma:type="vector">
<use xlink:href="#path3_fill" transform="translate(-291.476 -119.436)" fill="#FFFFFF" fill-opacity="0.3"/>
</g>
</g>
</g>
</g>
<defs>
<path id="path0_fill" d="M 2.9707 7.42432C 2.75391 7.6499 2.52832 7.81982 2.29395 7.93408C 2.05957 8.04834 1.81641 8.10547 1.56445 8.10547C 1.16602 8.10547 0.848145 7.98535 0.61084 7.74512C 0.373535 7.50488 0.254883 7.18115 0.254883 6.77393C 0.254883 6.50439 0.310547 6.26562 0.421875 6.05762C 0.533203 5.84961 0.685547 5.68701 0.878906 5.56982C 1.07227 5.45264 1.36523 5.36621 1.75781 5.31055C 2.28516 5.23438 2.67188 5.14355 2.91797 5.03809L 2.92236 4.83594C 2.92236 4.5166 2.86523 4.29248 2.75098 4.16357C 2.58984 3.97607 2.34229 3.88232 2.0083 3.88232C 1.70654 3.88232 1.48096 3.94531 1.33154 4.07129C 1.18213 4.19434 1.07227 4.42725 1.00195 4.77002L 0.364746 4.66455C 0.455566 4.16357 0.638672 3.79883 0.914062 3.57031C 1.19238 3.3418 1.58936 3.22754 2.10498 3.22754C 2.50635 3.22754 2.82129 3.30371 3.0498 3.45605C 3.27832 3.60547 3.42188 3.7915 3.48047 4.01416C 3.54199 4.23682 3.57275 4.56201 3.57275 4.98975L 3.57275 6.04443C 3.57275 6.78271 3.58594 7.24854 3.6123 7.44189C 3.6416 7.63232 3.69727 7.81836 3.7793 8L 3.10254 8C 3.03516 7.83887 2.99121 7.64697 2.9707 7.42432ZM 2.91797 5.65771C 2.68066 5.7749 2.32764 5.87451 1.85889 5.95654C 1.58643 6.00342 1.396 6.05762 1.2876 6.11914C 1.1792 6.17773 1.09424 6.2627 1.03271 6.37402C 0.974121 6.48242 0.944824 6.6084 0.944824 6.75195C 0.944824 6.97461 1.01367 7.15332 1.15137 7.28809C 1.28906 7.41992 1.47949 7.48584 1.72266 7.48584C 1.9541 7.48584 2.16357 7.42578 2.35107 7.30566C 2.5415 7.18555 2.68359 7.02588 2.77734 6.82666C 2.87109 6.62451 2.91797 6.33154 2.91797 5.94775L 2.91797 5.65771ZM 5.4791 8L 5.4791 3.33301L 6.06357 3.33301L 6.06357 4.04053C 6.21299 3.7124 6.34922 3.49561 6.47227 3.39014C 6.59824 3.28174 6.73887 3.22754 6.89414 3.22754C 7.11094 3.22754 7.33213 3.3125 7.55771 3.48242L 7.33799 4.21631C 7.17686 4.10205 7.02012 4.04492 6.86777 4.04492C 6.73008 4.04492 6.6041 4.09326 6.48984 4.18994C 6.37559 4.28662 6.29502 4.42139 6.24814 4.59424C 6.16611 4.896 6.1251 5.2168 6.1251 5.55664L 6.1251 8L 5.4791 8ZM 11.279 9.78857L 11.279 7.50342C 11.1765 7.68213 11.0329 7.82715 10.8483 7.93848C 10.6667 8.0498 10.4836 8.10547 10.299 8.10547C 9.84199 8.10547 9.44648 7.88867 9.1125 7.45508C 8.77852 7.02148 8.61152 6.41064 8.61152 5.62256C 8.61152 4.93701 8.75215 4.36719 9.0334 3.91309C 9.31465 3.45605 9.71309 3.22754 10.2287 3.22754C 10.466 3.22754 10.677 3.28906 10.8615 3.41211C 11.0461 3.53223 11.2058 3.71387 11.3405 3.95703L 11.3405 3.33301L 11.925 3.33301L 11.925 9.78857L 11.279 9.78857ZM 9.2751 5.65332C 9.2751 6.25977 9.38057 6.7124 9.5915 7.01123C 9.80244 7.30713 10.0544 7.45508 10.3474 7.45508C 10.6081 7.45508 10.8396 7.31299 11.0417 7.02881C 11.2438 6.7417 11.3449 6.31543 11.3449 5.75C 11.3449 5.1084 11.238 4.63232 11.0241 4.32178C 10.8132 4.0083 10.5612 3.85156 10.2683 3.85156C 10.0017 3.85156 9.76875 3.99805 9.56953 4.29102C 9.37324 4.58105 9.2751 5.03516 9.2751 5.65332ZM 16.3538 8L 16.3538 7.31445C 16.2044 7.57812 16.0286 7.77588 15.8265 7.90771C 15.6243 8.03955 15.3958 8.10547 15.1409 8.10547C 14.8392 8.10547 14.5813 8.0249 14.3675 7.86377C 14.1536 7.69971 14.0101 7.49316 13.9368 7.24414C 13.8665 6.99512 13.8313 6.65527 13.8313 6.22461L 13.8313 3.33301L 14.4773 3.33301L 14.4773 5.92139C 14.4773 6.40186 14.5008 6.72412 14.5477 6.88818C 14.5975 7.04932 14.6868 7.17969 14.8157 7.2793C 14.9476 7.37598 15.097 7.42432 15.264 7.42432C 15.5745 7.42432 15.8294 7.29688 16.0286 7.04199C 16.1985 6.82227 16.2835 6.41943 16.2835 5.8335L 16.2835 3.33301L 16.9339 3.33301L 16.9339 8L 16.3538 8ZM 18.849 2.46729L 18.849 1.55762L 19.495 1.55762L 19.495 2.46729L 18.849 2.46729ZM 18.849 8L 18.849 3.33301L 19.495 3.33301L 19.495 8L 18.849 8ZM 22.8384 7.29248L 22.9263 7.99121C 22.7476 8.03809 22.5864 8.06152 22.4429 8.06152C 22.2173 8.06152 22.0356 8.01758 21.8979 7.92969C 21.7603 7.83887 21.665 7.71582 21.6123 7.56055C 21.5625 7.40527 21.5376 7.09619 21.5376 6.6333L 21.5376 3.94824L 21.063 3.94824L 21.063 3.33301L 21.5376 3.33301L 21.5376 2.17725L 22.1836 1.70264L 22.1836 3.33301L 22.8384 3.33301L 22.8384 3.94824L 22.1836 3.94824L 22.1836 6.67725C 22.1836 6.9292 22.2026 7.0918 22.2407 7.16504C 22.2964 7.27051 22.4004 7.32324 22.5527 7.32324C 22.626 7.32324 22.7212 7.31299 22.8384 7.29248ZM 26.9684 6.49707L 27.6363 6.59814C 27.525 7.09619 27.3229 7.47266 27.0299 7.72754C 26.7398 7.97949 26.3795 8.10547 25.9488 8.10547C 25.4068 8.10547 24.9674 7.90039 24.6305 7.49023C 24.2965 7.07715 24.1295 6.48242 24.1295 5.70605C 24.1295 4.90039 24.298 4.28662 24.6349 3.86475C 24.9747 3.43994 25.4039 3.22754 25.9225 3.22754C 26.4176 3.22754 26.8307 3.43555 27.1617 3.85156C 27.4928 4.26758 27.6583 4.86963 27.6583 5.65771L 27.6539 5.86865L 24.7975 5.86865C 24.8238 6.39307 24.9454 6.78857 25.1622 7.05518C 25.379 7.32178 25.6427 7.45508 25.9532 7.45508C 26.4396 7.45508 26.7779 7.13574 26.9684 6.49707ZM 24.837 5.21826L 26.9728 5.21826C 26.9435 4.81396 26.857 4.51221 26.7135 4.31299C 26.5055 4.02295 26.2403 3.87793 25.9181 3.87793C 25.628 3.87793 25.3805 3.99951 25.1754 4.24268C 24.9703 4.48291 24.8575 4.80811 24.837 5.21826ZM 31.863 6.29053L 32.5002 6.3916C 32.427 6.94824 32.2424 7.37305 31.9465 7.66602C 31.6535 7.95898 31.3005 8.10547 30.8874 8.10547C 30.3864 8.10547 29.9733 7.90039 29.6481 7.49023C 29.3259 7.07715 29.1647 6.46777 29.1647 5.66211C 29.1647 4.85059 29.3273 4.24268 29.6525 3.83838C 29.9807 3.43115 30.4011 3.22754 30.9138 3.22754C 31.3093 3.22754 31.6418 3.35059 31.9113 3.59668C 32.1838 3.84277 32.3581 4.21191 32.4343 4.7041L 31.8059 4.82275C 31.7443 4.50635 31.6374 4.27051 31.4851 4.11523C 31.3327 3.95703 31.1496 3.87793 30.9357 3.87793C 30.6164 3.87793 30.3513 4.02002 30.1403 4.3042C 29.9323 4.58545 29.8283 5.03369 29.8283 5.64893C 29.8283 6.28467 29.9279 6.74463 30.1271 7.02881C 30.3293 7.31299 30.5871 7.45508 30.9006 7.45508C 31.1467 7.45508 31.3562 7.36133 31.529 7.17383C 31.7048 6.9834 31.8161 6.68896 31.863 6.29053ZM 35.3909 7.29248L 35.4788 7.99121C 35.3001 8.03809 35.139 8.06152 34.9954 8.06152C 34.7698 8.06152 34.5882 8.01758 34.4505 7.92969C 34.3128 7.83887 34.2176 7.71582 34.1648 7.56055C 34.115 7.40527 34.0901 7.09619 34.0901 6.6333L 34.0901 3.94824L 33.6155 3.94824L 33.6155 3.33301L 34.0901 3.33301L 34.0901 2.17725L 34.7361 1.70264L 34.7361 3.33301L 35.3909 3.33301L 35.3909 3.94824L 34.7361 3.94824L 34.7361 6.67725C 34.7361 6.9292 34.7552 7.0918 34.7933 7.16504C 34.8489 7.27051 34.9529 7.32324 35.1053 7.32324C 35.1785 7.32324 35.2737 7.31299 35.3909 7.29248ZM 39.411 8L 39.411 7.31445C 39.2616 7.57812 39.0858 7.77588 38.8837 7.90771C 38.6815 8.03955 38.453 8.10547 38.1981 8.10547C 37.8964 8.10547 37.6386 8.0249 37.4247 7.86377C 37.2108 7.69971 37.0673 7.49316 36.994 7.24414C 36.9237 6.99512 36.8886 6.65527 36.8886 6.22461L 36.8886 3.33301L 37.5346 3.33301L 37.5346 5.92139C 37.5346 6.40186 37.558 6.72412 37.6049 6.88818C 37.6547 7.04932 37.744 7.17969 37.873 7.2793C 38.0048 7.37598 38.1542 7.42432 38.3212 7.42432C 38.6317 7.42432 38.8866 7.29688 39.0858 7.04199C 39.2558 6.82227 39.3407 6.41943 39.3407 5.8335L 39.3407 3.33301L 39.9911 3.33301L 39.9911 8L 39.411 8ZM 41.9062 8L 41.9062 3.33301L 42.4907 3.33301L 42.4907 4.04053C 42.6401 3.7124 42.7764 3.49561 42.8994 3.39014C 43.0254 3.28174 43.166 3.22754 43.3213 3.22754C 43.5381 3.22754 43.7593 3.3125 43.9849 3.48242L 43.7651 4.21631C 43.604 4.10205 43.4473 4.04492 43.2949 4.04492C 43.1572 4.04492 43.0312 4.09326 42.917 4.18994C 42.8027 4.28662 42.7222 4.42139 42.6753 4.59424C 42.5933 4.896 42.5522 5.2168 42.5522 5.55664L 42.5522 8L 41.9062 8ZM 47.7633 7.42432C 47.5465 7.6499 47.3209 7.81982 47.0865 7.93408C 46.8521 8.04834 46.609 8.10547 46.357 8.10547C 45.9586 8.10547 45.6407 7.98535 45.4034 7.74512C 45.1661 7.50488 45.0475 7.18115 45.0475 6.77393C 45.0475 6.50439 45.1031 6.26562 45.2145 6.05762C 45.3258 5.84961 45.4781 5.68701 45.6715 5.56982C 45.8648 5.45264 46.1578 5.36621 46.5504 5.31055C 47.0777 5.23438 47.4645 5.14355 47.7105 5.03809L 47.7149 4.83594C 47.7149 4.5166 47.6578 4.29248 47.5436 4.16357C 47.3824 3.97607 47.1349 3.88232 46.8009 3.88232C 46.4991 3.88232 46.2735 3.94531 46.1241 4.07129C 45.9747 4.19434 45.8648 4.42725 45.7945 4.77002L 45.1573 4.66455C 45.2481 4.16357 45.4313 3.79883 45.7066 3.57031C 45.985 3.3418 46.3819 3.22754 46.8976 3.22754C 47.2989 3.22754 47.6139 3.30371 47.8424 3.45605C 48.0709 3.60547 48.2145 3.7915 48.273 4.01416C 48.3346 4.23682 48.3653 4.56201 48.3653 4.98975L 48.3653 6.04443C 48.3653 6.78271 48.3785 7.24854 48.4049 7.44189C 48.4342 7.63232 48.4898 7.81836 48.5719 8L 47.8951 8C 47.8277 7.83887 47.7838 7.64697 47.7633 7.42432ZM 47.7105 5.65771C 47.4732 5.7749 47.1202 5.87451 46.6515 5.95654C 46.379 6.00342 46.1886 6.05762 46.0802 6.11914C 45.9718 6.17773 45.8868 6.2627 45.8253 6.37402C 45.7667 6.48242 45.7374 6.6084 45.7374 6.75195C 45.7374 6.97461 45.8063 7.15332 45.9439 7.28809C 46.0816 7.41992 46.2721 7.48584 46.5152 7.48584C 46.7467 7.48584 46.9562 7.42578 47.1437 7.30566C 47.3341 7.18555 47.4762 7.02588 47.5699 6.82666C 47.6637 6.62451 47.7105 6.33154 47.7105 5.94775L 47.7105 5.65771Z"/>
<path id="path1_fill" d="M 15.3812 29.4805C 23.876 29.4805 30.7624 22.881 30.7624 14.7402C 30.7624 6.59943 23.876 2.9834e-06 15.3812 2.9834e-06C 6.88638 2.9834e-06 6.01953e-06 6.59943 6.01953e-06 14.7402C 6.01953e-06 22.881 6.88638 29.4805 15.3812 29.4805Z"/>
<path id="path2_fill" d="M 34.8432 88.8491L 0.0542105 88.9399L 0.0542105 40.8625C -0.123683 32.4509 0.0385771 23.1089 2.05644 14.7821C 2.96973 11.2488 4.87371 6.88111 8.95931 3.94251C 11.8198 1.51825 13.8696 0.281185 19.9761 0.000574222C 23.3039 -0.0232438 25.598 0.695028 28.4093 3.03965C 30.7636 4.60348 32.8224 7.87031 33.4774 11.7289C 35.3285 20.3988 34.8253 24.4487 34.8432 34.468L 34.8432 88.8491L 34.8432 88.8491Z"/>
<path id="path3_fill" d="M 119.14 218.59L 94.9372 218.59L 94.9372 164.12C 94.9372 152.75 94.4749 145.169 93.578 141.382C 92.6893 137.629 90.9759 134.721 88.5017 132.695C 86.0447 130.683 83.2103 129.655 80.0641 129.655C 76.0246 129.655 72.3335 130.971 69.0525 133.588C 65.7939 136.188 63.4738 139.81 62.1526 144.421C 60.8314 149.032 60.1511 157.723 60.1511 170.52L 60.1511 218.59L -5.05218e-08 218.586L -5.05218e-08 -1.27334e-08L 23.7871 -1.27334e-08L 23.7871 196.278L 35.9829 196.278L 35.9829 107.367L 60.3692 107.367L 60.3692 126.008C 64.338 119.716 66.8367 114.997 71.8415 111.851C 76.8463 108.705 82.3521 107.132 88.4303 107.132C 95.5095 107.132 101.454 108.982 106.306 112.638C 111.175 116.307 114.493 121.039 116.352 126.795C 118.211 132.551 119.14 140.884 119.14 151.75L 119.14 218.59L 119.14 218.59Z"/>
</defs>
</svg>
