<svg width="582" height="241" xmlns="http://www.w3.org/2000/svg">
 <defs>
  <path id="svg_1" d="m0,0z"/>
  <path id="svg_2" d="m331.497,190l70.8314,-11.3369c-8.16699,-61.8338 -28.5014,-108.995 -61.3217,-141.497c-32.668,-32.668 -72.008,-48.8359 -117.84,-48.8359c-55.6601,0 -101.506,22.8399 -137.496,68.5059c-36.004,45.8321 -53.9991,113.327 -53.9991,202.998c0,90.1692 18.1612,157.665 54.4974,202.832c36.3362,45.0015 82.9988,67.6615 139.836,67.6615c43.991,0 80.9917,-13.6624 111.168,-41.0011c30.1625,-27.4909 49.3342,-68.492 57.8334,-123.156l-69.8347,-13.1779c-6.83813,35.1734 -18.6733,61.5016 -35.6718,78.8461c-16.8323,17.4967 -37.1667,26.1621 -61.0033,26.1621c-35.4918,0 -64.8238,-15.6696 -88.162,-47.1748c-23.1721,-31.3253 -34.8274,-81.1578 -34.8274,-149.664c0,-70.4992 11.1569,-121.661 33.4985,-153.332c22.1616,-31.5052 50.8292,-47.327 85.6565,-47.327c27.3387,0 50.6769,10.4925 70.0008,31.4914c19.3378,20.9989 31.6713,53.6668 36.8345,98.0039l-0.0005,0.0017z"/>
  <path id="svg_3" d="m343.83,166.994l74.1674,-11.1569c-12.3335,-55.3418 -34.8274,-97.1734 -67.1631,-125.343c-32.3358,-28.1554 -72.5063,-42.1638 -120.332,-42.1638c-60.3389,0 -109.009,22.8399 -146.341,68.5059c-37.1667,45.8321 -55.8263,111.832 -55.8263,198.001c0,89.4909 18.8256,157.831 56.3246,204.825c37.6789,47.1748 85.3382,70.6653 142.839,70.6653c54.9957,0 100.994,-23.1583 137.662,-69.3226c36.8345,-46.3442 55.1757,-113.175 55.1757,-200.673l-0.33222,-23.5043l-317.502,0c3.00379,-58.3317 16.5001,-102.157 40.5028,-131.835c24.1549,-29.6642 53.5007,-44.4894 87.9959,-44.4894c53.9991,0 91.6641,35.4918 112.829,106.489l0.00022,0.0018zm-236.82922,142.1732l237.161,0c-3.15606,44.8354 -12.8319,78.3339 -28.6675,100.496c-23.1583,32.1697 -52.6563,48.3375 -88.4942,48.3375c-32.1697,0 -59.6744,-13.4963 -82.5005,-40.3366c-22.8399,-26.8265 -35.3396,-62.9966 -37.499,-108.496l0.0002,-0.0009z"/>
  <path id="svg_4" d="m52.6702,614.67l0,101.16l71.828,0l0,-101.16l-71.828,0zm0,-614.67l0,518.493l71.828,0l0,-518.493l-71.828,0z"/>
  <path id="svg_5" d="m330.002,63.9932c-24.0027,-25.1654 -49.002,-43.991 -75.164,-56.6568c-26.0098,-12.6658 -53.0024,-19.0056 -81.0055,-19.0056c-44.3371,0 -79.6628,13.3302 -106.005,40.0044c-26.3282,26.6604 -39.4923,62.6644 -39.4923,107.832c0,29.9964 6.15985,56.5045 18.4934,79.6628c12.3335,23.1721 29.332,41.1672 50.843,54.1652c21.4972,12.998 53.9991,22.6738 97.6579,28.8336c58.4978,8.49921 101.506,18.5072 128.831,30.3425l0.51217,22.3277c0,35.5057 -6.3398,60.505 -19.0056,74.8318c-17.829,20.8328 -45.3337,31.173 -82.5005,31.173c-33.4985,0 -58.6639,-6.83813 -75.164,-20.6666c-16.6662,-13.8424 -28.8336,-39.8383 -36.6684,-78.0017l-70.8314,11.8352c10.1603,55.6601 30.4947,96.1629 61.3355,121.494c30.6608,25.3315 74.8318,38.1634 132.001,38.1634c44.6555,0 79.6628,-8.49921 104.994,-25.1654c25.4976,-16.8323 41.4994,-37.499 48.1714,-62.3322c6.65818,-24.6671 9.99419,-60.8372 9.99419,-108.33l0,-117.162c0,-82.0022 1.49498,-133.842 4.66488,-155.007c3.00379,-21.3311 9.16364,-42.1638 18.3411,-62.3322l-75.344,0c-7.48872,17.829 -12.3335,39.16 -14.6591,63.9932l0.00026,0.0007zm-5.84174,196.3393c-26.3282,-13.1641 -65.4882,-24.1688 -117.66,-33.3324c-30.1625,-5.1632 -51.3275,-11.1708 -63.4949,-17.829c-12.0013,-6.67202 -21.3449,-16.0018 -28.0031,-28.3353c-6.67202,-12.1674 -10.008,-26.1759 -10.008,-42.1638c0,-24.6671 7.66867,-44.5032 23.006,-59.3422c15.1712,-14.8252 36.3362,-22.1616 63.3288,-22.1616c25.8437,0 49.1681,6.65818 70.1669,20.0022c20.9989,13.3302 36.6684,31.1592 47.1748,53.5007c10.3264,22.1616 15.4896,54.6635 15.4896,97.3257l0,32.3358l-0.0001,-0.0001z"/>
  <path id="svg_6" d="m213.339,78.6661l9.82808,-77.6695c-19.8361,-5.1632 -37.8312,-7.83478 -53.6668,-7.83478c-25.1654,0 -45.3337,5.01094 -60.6711,14.839c-15.1574,9.99419 -25.6637,23.5043 -31.4914,40.835c-5.67537,17.1645 -8.49921,51.6597 -8.49921,103.001l0,298.331l-52.6702,0l0,68.3259l52.6702,0l0,128.512l71.828,52.6563l0,-181.169l72.6724,0l0,-68.3259l-72.6724,0l0,-303.162c0,-28.0031 2.00714,-46.1781 6.3398,-54.179c6.15985,-11.8214 17.6629,-17.6629 34.6613,-17.6629c8.16699,0 18.6595,1.16276 31.6713,3.50212l0.00003,0.00076z"/>
  <path id="svg_7" d="m331.497,0l0,76.1607c-16.5001,-29.332 -36.1701,-51.3275 -58.4978,-65.8204c-22.4938,-14.6729 -47.8392,-22.0094 -76.1607,-22.0094c-33.6785,0 -62.1661,8.99754 -86.0026,27.0065c-23.8365,18.1612 -39.6722,41.0011 -47.6731,68.6581c-7.83478,27.6709 -11.8352,65.336 -11.8352,113.341l0,321.157l71.6758,0l0,-287.492c0,-53.5007 2.65773,-89.1725 8.16699,-107.168c5.32931,-18.1612 15.1574,-32.668 29.6642,-43.5065c14.493,-10.8247 30.9931,-16.334 49.6664,-16.334c34.4952,0 62.8305,14.1746 84.826,42.5099c19.0056,24.3349 28.3353,69.1703 28.3353,134.16l0,277.83l72.3402,0l0,-518.493l-64.5054,0l-0.00009,0.0001z"/>
  <path id="svg_8" d="m323.662,-198.666l0,253.827c-11.3231,-19.8223 -27.1587,-35.9901 -47.4931,-48.3237c-20.3344,-12.3335 -40.835,-18.5072 -61.3355,-18.5072c-50.8292,0 -94.6679,24.0027 -131.835,72.1741c-37.1667,48.1576 -55.6601,116.165 -55.6601,203.663c0,76.1607 15.6557,139.503 46.8287,190.166c31.3391,50.663 75.4962,75.9946 132.831,75.9946c26.3282,0 49.8325,-6.82429 70.333,-20.3344c20.5005,-13.4963 38.3295,-33.8307 53.1685,-60.8233l0,69.3226l65.0037,0l0,-717.159l-71.8419,0l0.0007,0.0003zm-222.6687,459.3307c0,-67.3293 11.8352,-117.494 35.1734,-150.494c23.5043,-33.1663 51.4936,-49.6664 83.9955,-49.6664c28.9998,0 54.6773,15.8218 77.1712,47.6593c22.4938,31.6713 33.6646,78.9984 33.6646,141.843c0,71.3297 -11.6691,124.332 -35.3257,158.993c-23.6704,34.6613 -51.6735,52.0058 -84.1754,52.0058c-29.6642,0 -55.494,-16.334 -77.5034,-48.6697c-21.9955,-32.3358 -33.0002,-82.8327 -33.0002,-151.671z"/>
  <path id="svg_9" d="m52.6702,0l0,518.493l64.9899,0l0,-78.5c16.68,36.3362 31.8374,60.505 45.6798,72.5063c13.8285,11.8352 29.332,17.829 46.6626,17.829c24.0027,0 48.6697,-9.49586 73.6691,-28.3353l-24.3349,-81.6561c-18.0089,12.8319 -35.3396,19.1578 -52.338,19.1578c-15.3373,0 -29.332,-5.49542 -41.9977,-16.1679c-12.6658,-10.6586 -21.6633,-25.6637 -26.8403,-44.8216c-9.16364,-33.6785 -13.6624,-69.3364 -13.6624,-107.001l0,-271.504l-71.828,0l-0.0001,-0.0002z"/>
  <style type="text/css">
   <![CDATA[
    @font-face { font-family:"Arial Narrow";src:url("#FontID0") format(svg)}
    .fil0 {fill:#ffffff}
    .fil2 {fill:#111111}
    .fil1 {fill:#E77817}
    .fil3 {fill:#ffffff;fill-rule:nonzero}
    .fnt0 {font-weight:normal;font-size:7.2242;font-family:'Arial Narrow'}
   ]]>
  </style>
 </defs>
 <g>
  <title>background</title>
  <rect fill="none" id="canvas_background" height="243" width="584" y="-1" x="-1"/>
 </g>
 <g>
  <title>Layer 1</title>
  <g stroke="null" id="Capa_x0020_1">
   <metadata stroke="null" transform="translate(0,-1) translate(0,-1) translate(0,-1) translate(0,-1) translate(0,-1) translate(0,-1) translate(0,-1) translate(0,-1) translate(0,-1) translate(0,-1) translate(0,-1) translate(0,-1) translate(0,-1) translate(0,-1) translate(0,-1) translate(0,-1) translate(0,-1) translate(0,-1) translate(0,-1) translate(0,-1) translate(0,-1) translate(0,-1) translate(0,-1) translate(0,-1) translate(0,-1) translate(0,-1) translate(0,-1) translate(0,-1) translate(0,-1) translate(-1,0) translate(-1,0) translate(-1,0) translate(-1,0) translate(-1,0) translate(-1,0) translate(-1,0) translate(-1,0) translate(1,1) translate(10.524399757385254,30.56369972229004) scale(7.3143839836120605) translate(-10.524399757385254,-30.56369972229004) translate(0.3451284170150757,4.178575038909912) scale(1.0176180601119995) translate(-0.3451284170150757,-4.178575038909912) " id="CorelCorpID_0Corel-Layer"/>
   <text stroke="null" transform="matrix(7.443249240317584,0,0,7.443249240317584,-67.6703862942789,-196.92953505054385) " id="svg_10" class="fil0 fnt0" y="56.001052" x="35.010165">a</text>
   <text stroke="null" transform="matrix(7.443249240317584,0,0,7.443249240317584,-67.6703862942789,-196.92953505054385) " id="svg_11" class="fil0 fnt0" y="56.001052" x="39.951465">r</text>
   <text stroke="null" transform="matrix(7.443249240317584,0,0,7.443249240317584,-67.6703862942789,-196.92953505054385) " id="svg_12" class="fil0 fnt0" y="56.001052" x="43.570765">q</text>
   <text stroke="null" transform="matrix(7.443249240317584,0,0,7.443249240317584,-67.6703862942789,-196.92953505054385) " id="svg_13" class="fil0 fnt0" y="56.001052" x="48.512065">u</text>
   <text stroke="null" transform="matrix(7.443249240317584,0,0,7.443249240317584,-67.6703862942789,-196.92953505054385) " id="svg_14" class="fil0 fnt0" y="56.001052" x="53.453365">i</text>
   <text stroke="null" transform="matrix(7.443249240317584,0,0,7.443249240317584,-67.6703862942789,-196.92953505054385) " id="svg_15" class="fil0 fnt0" y="56.001052" x="56.416465">t</text>
   <text stroke="null" transform="matrix(7.443249240317584,0,0,7.443249240317584,-67.6703862942789,-196.92953505054385) " id="svg_16" class="fil0 fnt0" y="56.001052" x="59.710665">e</text>
   <text stroke="null" transform="matrix(7.443249240317584,0,0,7.443249240317584,-67.6703862942789,-196.92953505054385) " id="svg_17" class="fil0 fnt0" y="56.001052" x="64.651965">c</text>
   <text stroke="null" transform="matrix(7.443249240317584,0,0,7.443249240317584,-67.6703862942789,-196.92953505054385) " id="svg_18" class="fil0 fnt0" y="56.001052" x="69.262165">t</text>
   <text stroke="null" transform="matrix(7.443249240317584,0,0,7.443249240317584,-67.6703862942789,-196.92953505054385) " id="svg_19" class="fil0 fnt0" y="56.001052" x="72.556365">u</text>
   <text stroke="null" transform="matrix(7.443249240317584,0,0,7.443249240317584,-67.6703862942789,-196.92953505054385) " id="svg_20" class="fil0 fnt0" y="56.001052" x="77.497665">r</text>
   <text stroke="null" transform="matrix(7.443249240317584,0,0,7.443249240317584,-67.6703862942789,-196.92953505054385) " id="svg_21" class="fil0 fnt0" y="56.001052" x="81.116965">a</text>
   <g stroke="null" id="_54564800">
    <ellipse stroke="null" ry="14.740239" rx="15.381177" cy="205.549669" cx="148.070441" class="fil1" id="_54568632"/>
    <path stroke="null" d="m97.460813,220.062516l-34.789003,0.090808l0,-48.077435c-0.177894,-8.411616 -0.015631,-17.753638 2.002234,-26.080401c0.913287,-3.53331 2.81727,-7.901009 6.902869,-10.839604c2.860441,-2.424266 4.910312,-3.661334 11.016753,-3.941945c3.327877,-0.023818 5.621886,0.694455 8.433201,3.039079c2.3543,1.563827 4.413102,4.830669 5.068108,8.689249c1.851136,8.669897 1.347972,12.719769 1.365836,22.739126l0,54.381123z" class="fil2" id="_54567520"/>
    <path stroke="null" d="m121.66477,220.153324l-24.203214,0l0,-54.469698c0,-11.369563 -0.462226,-18.950513 -1.359137,-22.738382c-0.888724,-3.752886 -2.60216,-6.660964 -5.076296,-8.687016c-2.457017,-2.011166 -5.291406,-3.039079 -8.437667,-3.039079c-4.039451,0 -7.730559,1.315966 -11.011543,3.932269c-3.258655,2.600671 -5.578715,6.222556 -6.899892,10.832905c-1.321177,4.611093 -2.00149,13.302575 -2.00149,26.099009l0,48.069992l-60.15113,-0.003722l0,-218.5859l23.787136,0l0,196.277738l12.195764,0l0,-88.911101l24.386317,0l0,18.641618c3.96874,-6.291779 6.467439,-11.010799 11.47228,-14.15706c5.004841,-3.146261 10.510612,-4.71902 16.58877,-4.71902c7.079274,0 13.023453,1.849647 17.875707,5.505771c4.869374,3.669522 8.18683,8.401195 10.046153,14.15706c1.859324,5.755865 2.788241,14.089326 2.788241,24.954982l0,66.839634z" class="fil3" id="_54565104"/>
   </g>
  </g>
 </g>
</svg>