<svg width="2104" height="103" viewBox="0 0 2104 103" version="1.1" xmlns="http://www.w3.org/2000/svg" xmlns:xlink="http://www.w3.org/1999/xlink" xmlns:figma="http://www.figma.com/figma/ns">
<title>fondo</title>
<desc>Created using Figma</desc>
<g id="Canvas" transform="translate(1343 513)" figma:type="canvas">
<mask id="mask0_alpha" mask-type="alpha">
<path d="M -1343 -513L 761 -513L 761 -410.775L -1343 -410.775L -1343 -513Z" fill="#FFFFFF"/>
</mask>
<g id="fondo" mask="url(#mask0_alpha)" figma:type="frame">
<g id="Subtract" figma:type="vector-operation">
<use xlink:href="#path0_fill" transform="translate(-1343 -513)" fill="#000000" fill-opacity="0.8"/>
</g>
<g id="Subtract" figma:type="vector-operation">
<use xlink:href="#path1_fill" transform="translate(-1883 -413)" fill="#FFFFFF" fill-opacity="0.7"/>
</g>
<g id="logo_web" figma:type="frame">
<g id="Canvas" figma:type="frame">
<g id="Capa x0020 1" figma:type="frame">
<g id="arquitectura" figma:type="frame">
<g id="Vector" figma:type="vector">
<use xlink:href="#path2_fill" transform="matrix(7.44325 0 0 7.44325 -621.997 -433.168)" fill="#FFFFFF" fill-opacity="0.7"/>
</g>
</g>
<g id="54564800" figma:type="frame">
<g id="54568632" figma:type="frame">
<g id="Vector" figma:type="vector">
<use xlink:href="#path3_fill" transform="translate(-637.207 -427.04)" fill="#F49219"/>
</g>
</g>
<g id="54565104" figma:type="frame">
<g id="Vector" figma:type="vector">
<use xlink:href="#path4_fill" transform="translate(-681 -486.042)" fill="#FFFFFF" fill-opacity="0.7"/>
</g>
</g>
</g>
</g>
</g>
</g>
</g>
</g>
<defs>
<path id="path0_fill" fill-rule="evenodd" d="M 0 0L 2104 0L 2104 100L 750.228 100L 750.228 84.2776L 748.764 84.2776L 748.764 85.8402C 748.427 85.2313 748.027 84.7765 747.565 84.4756C 747.102 84.1675 746.574 84.0134 745.98 84.0134C 744.689 84.0134 743.691 84.5857 742.987 85.7302C 742.282 86.8674 741.93 88.2943 741.93 90.0111C 741.93 91.9846 742.348 93.5143 743.185 94.6002C 744.021 95.686 745.011 96.2289 746.156 96.2289C 746.618 96.2289 747.077 96.0895 747.531 95.8107C 747.994 95.5319 748.353 95.1688 748.61 94.7212L 748.61 100L 702 100L 702.084 78.0135C 702.084 74.3577 701.771 71.5541 701.146 69.6176C 700.52 67.681 699.404 66.0889 697.766 64.8545C 696.133 63.6245 694.133 63.0021 691.752 63.0021C 689.707 63.0021 687.854 63.5313 686.171 64.5898C 684.696 65.5169 683.868 66.8502 682.787 68.5896L 682.778 68.6054C 682.628 68.8467 682.473 69.0959 682.311 69.3528L 682.311 63.0811L 674.106 63.0811L 674.106 92.9946L 670.003 92.9946L 670.003 26.9583L 662 26.9583L 662 100L 0 100L 0 0ZM 693.941 82.0128C 693.941 82.0672 693.941 82.1221 693.941 82.1775L 693.941 82.1753C 693.941 82.1208 693.941 82.0667 693.941 82.0128ZM 682.549 77.473C 682.643 76.8346 682.762 76.2056 682.91 75.593C 682.958 75.4083 683.014 75.2165 683.079 75.0211C 683.019 75.1921 682.962 75.3677 682.911 75.5477C 682.768 76.0471 682.647 76.6888 682.549 77.473ZM 684.611 72.4707C 684.799 72.2851 685.006 72.109 685.233 71.9461C 685.431 71.7775 685.619 71.626 685.809 71.4908C 685.613 71.6155 685.42 71.7529 685.232 71.903C 685.012 72.0784 684.805 72.2677 684.611 72.4707ZM 687.139 70.8599C 687.608 70.7334 688.181 70.6547 688.939 70.6198C 690.059 70.6118 690.831 70.8535 691.776 71.6423C 691.88 71.7112 691.982 71.7899 692.081 71.8774C 691.984 71.781 691.882 71.6894 691.776 71.6026C 690.949 70.9257 689.996 70.5798 688.937 70.5798C 688.312 70.5798 687.712 70.6733 687.139 70.8599ZM 693.441 74.3559C 693.456 74.4252 693.47 74.4952 693.482 74.5658C 693.534 74.8132 693.581 75.0495 693.623 75.2767C 693.581 74.9901 693.534 74.7396 693.484 74.5252C 693.47 74.4682 693.456 74.4117 693.441 74.3559ZM 727.804 94.5231C 727.261 95.088 726.696 95.5136 726.109 95.7997C 725.522 96.0858 724.914 96.2289 724.283 96.2289C 723.285 96.2289 722.489 95.9281 721.895 95.3265C 721.3 94.7249 721.003 93.9142 721.003 92.8944C 721.003 92.2194 721.143 91.6215 721.421 91.1006C 721.7 90.5797 722.082 90.1725 722.566 89.879C 723.05 89.5856 723.784 89.3692 724.767 89.2298C 726.087 89.039 727.056 88.8116 727.672 88.5475L 727.683 88.0412C 727.683 87.2415 727.54 86.6803 727.254 86.3575C 726.85 85.8879 726.23 85.6532 725.394 85.6532C 724.638 85.6532 724.073 85.8109 723.699 86.1264C 723.325 86.4345 723.05 87.0178 722.874 87.8762L 721.278 87.612C 721.506 86.3575 721.964 85.4441 722.654 84.8718C 723.351 84.2996 724.345 84.0134 725.636 84.0134C 726.641 84.0134 727.43 84.2042 728.002 84.5857C 728.575 84.9599 728.934 85.4257 729.081 85.9833C 729.235 86.5409 729.312 87.3553 729.312 88.4264L 729.312 91.0676C 729.312 92.9164 729.345 94.0829 729.411 94.5671C 729.484 95.044 729.624 95.5099 729.829 95.9648L 728.134 95.9648C 727.966 95.5613 727.856 95.0807 727.804 94.5231ZM 727.672 90.0992C 727.078 90.3926 726.194 90.6421 725.02 90.8475C 724.338 90.9649 723.861 91.1006 723.589 91.2547C 723.318 91.4014 723.105 91.6142 722.951 91.8929C 722.804 92.1644 722.731 92.4799 722.731 92.8394C 722.731 93.397 722.903 93.8445 723.248 94.182C 723.593 94.5121 724.07 94.6772 724.679 94.6772C 725.258 94.6772 725.783 94.5268 726.252 94.226C 726.729 93.9252 727.085 93.5254 727.32 93.0265C 727.555 92.5202 727.672 91.7866 727.672 90.8255L 727.672 90.0992ZM 734.086 95.9648L 734.086 84.2776L 735.549 84.2776L 735.549 86.0493C 735.924 85.2276 736.265 84.6848 736.573 84.4206C 736.888 84.1492 737.241 84.0134 737.629 84.0134C 738.172 84.0134 738.726 84.2262 739.291 84.6517L 738.741 86.4895C 738.337 86.2034 737.945 86.0603 737.563 86.0603C 737.219 86.0603 736.903 86.1814 736.617 86.4235C 736.331 86.6656 736.129 87.0031 736.012 87.436C 735.806 88.1917 735.703 88.995 735.703 89.846L 735.703 95.9648L 734.086 95.9648ZM 743.592 90.0881C 743.592 91.6068 743.856 92.7403 744.384 93.4886C 744.912 94.2297 745.543 94.6002 746.277 94.6002C 746.93 94.6002 747.51 94.2444 748.016 93.5327C 748.522 92.8137 748.775 91.7462 748.775 90.3303C 748.775 88.7235 748.507 87.5313 747.972 86.7537C 747.444 85.9686 746.812 85.5761 746.079 85.5761C 745.411 85.5761 744.828 85.943 744.329 86.6766C 743.838 87.4029 743.592 88.5401 743.592 90.0881ZM 761.318 95.9648L 761.318 94.248C 760.944 94.9083 760.504 95.4035 759.998 95.7336C 759.492 96.0638 758.919 96.2289 758.281 96.2289C 757.526 96.2289 756.88 96.0271 756.344 95.6236C 755.809 95.2128 755.449 94.6955 755.266 94.0719C 755.09 93.4483 755.002 92.5973 755.002 91.5188L 755.002 84.2776L 756.619 84.2776L 756.619 90.7595C 756.619 91.9627 756.678 92.7697 756.796 93.1805C 756.92 93.584 757.144 93.9105 757.467 94.16C 757.797 94.4021 758.171 94.5231 758.589 94.5231C 759.367 94.5231 760.005 94.204 760.504 93.5657C 760.93 93.0155 761.142 92.0067 761.142 90.5394L 761.142 84.2776L 762.771 84.2776L 762.771 95.9648L 761.318 95.9648ZM 767.567 82.1096L 767.567 79.8316L 769.185 79.8316L 769.185 82.1096L 767.567 82.1096ZM 767.567 95.9648L 767.567 84.2776L 769.185 84.2776L 769.185 95.9648L 767.567 95.9648ZM 777.557 94.193L 777.778 95.9427C 777.33 96.0602 776.926 96.1188 776.567 96.1188C 776.002 96.1188 775.547 96.0088 775.202 95.7887C 774.858 95.5613 774.619 95.2531 774.487 94.8643C 774.362 94.4754 774.3 93.7014 774.3 92.5422L 774.3 85.8182L 773.111 85.8182L 773.111 84.2776L 774.3 84.2776L 774.3 81.3833L 775.918 80.1947L 775.918 84.2776L 777.557 84.2776L 777.557 85.8182L 775.918 85.8182L 775.918 92.6523C 775.918 93.2832 775.965 93.6904 776.061 93.8738C 776.2 94.138 776.461 94.27 776.842 94.27C 777.026 94.27 777.264 94.2444 777.557 94.193ZM 787.9 92.2011L 789.573 92.4542C 789.294 93.7014 788.788 94.6442 788.054 95.2825C 787.327 95.9134 786.425 96.2289 785.347 96.2289C 783.989 96.2289 782.889 95.7153 782.045 94.6882C 781.209 93.6537 780.791 92.1644 780.791 90.2202C 780.791 88.2026 781.213 86.6656 782.056 85.6092C 782.907 84.5453 783.982 84.0134 785.281 84.0134C 786.521 84.0134 787.555 84.5343 788.384 85.5761C 789.213 86.618 789.628 88.1256 789.628 90.0992L 789.617 90.6274L 782.464 90.6274C 782.529 91.9406 782.834 92.9311 783.377 93.5987C 783.92 94.2664 784.58 94.6002 785.358 94.6002C 786.576 94.6002 787.423 93.8005 787.9 92.2011ZM 782.562 88.9987L 787.911 88.9987C 787.838 87.9862 787.621 87.2306 787.262 86.7317C 786.741 86.0053 786.077 85.6422 785.27 85.6422C 784.543 85.6422 783.923 85.9466 783.41 86.5556C 782.896 87.1572 782.614 87.9716 782.562 88.9987ZM 800.157 91.6839L 801.753 91.937C 801.57 93.3309 801.107 94.3947 800.366 95.1284C 799.632 95.8621 798.748 96.2289 797.714 96.2289C 796.459 96.2289 795.425 95.7153 794.61 94.6882C 793.804 93.6537 793.4 92.1277 793.4 90.1102C 793.4 88.0779 793.807 86.5556 794.622 85.5431C 795.443 84.5233 796.496 84.0134 797.78 84.0134C 798.771 84.0134 799.603 84.3216 800.278 84.9378C 800.96 85.5541 801.397 86.4785 801.588 87.7111L 800.014 88.0082C 799.86 87.2159 799.592 86.6253 799.211 86.2364C 798.829 85.8402 798.371 85.6422 797.835 85.6422C 797.035 85.6422 796.371 85.998 795.843 86.7097C 795.322 87.4139 795.062 88.5365 795.062 90.0771C 795.062 91.6692 795.311 92.821 795.81 93.5327C 796.316 94.2444 796.962 94.6002 797.747 94.6002C 798.363 94.6002 798.888 94.3654 799.321 93.8958C 799.761 93.419 800.04 92.6816 800.157 91.6839ZM 808.992 94.193L 809.212 95.9427C 808.764 96.0602 808.361 96.1188 808.001 96.1188C 807.436 96.1188 806.982 96.0088 806.637 95.7887C 806.292 95.5613 806.054 95.2531 805.921 94.8643C 805.797 94.4754 805.734 93.7014 805.734 92.5422L 805.734 85.8182L 804.546 85.8182L 804.546 84.2776L 805.734 84.2776L 805.734 81.3833L 807.352 80.1947L 807.352 84.2776L 808.992 84.2776L 808.992 85.8182L 807.352 85.8182L 807.352 92.6523C 807.352 93.2832 807.4 93.6904 807.495 93.8738C 807.634 94.138 807.895 94.27 808.277 94.27C 808.46 94.27 808.698 94.2444 808.992 94.193ZM 819.059 95.9648L 819.059 94.248C 818.685 94.9083 818.245 95.4035 817.739 95.7336C 817.232 96.0638 816.66 96.2289 816.022 96.2289C 815.266 96.2289 814.621 96.0271 814.085 95.6236C 813.549 95.2128 813.19 94.6955 813.006 94.0719C 812.83 93.4483 812.742 92.5973 812.742 91.5188L 812.742 84.2776L 814.36 84.2776L 814.36 90.7595C 814.36 91.9627 814.419 92.7697 814.536 93.1805C 814.661 93.584 814.885 93.9105 815.208 94.16C 815.538 94.4021 815.912 94.5231 816.33 94.5231C 817.107 94.5231 817.746 94.204 818.245 93.5657C 818.67 93.0155 818.883 92.0067 818.883 90.5394L 818.883 84.2776L 820.512 84.2776L 820.512 95.9648L 819.059 95.9648ZM 825.308 95.9648L 825.308 84.2776L 826.771 84.2776L 826.771 86.0493C 827.145 85.2276 827.487 84.6848 827.795 84.4206C 828.11 84.1492 828.462 84.0134 828.851 84.0134C 829.394 84.0134 829.948 84.2262 830.513 84.6517L 829.963 86.4895C 829.559 86.2034 829.167 86.0603 828.785 86.0603C 828.44 86.0603 828.125 86.1814 827.839 86.4235C 827.553 86.6656 827.351 87.0031 827.234 87.436C 827.028 88.1917 826.925 88.995 826.925 89.846L 826.925 95.9648L 825.308 95.9648ZM 839.975 94.5231C 839.432 95.088 838.867 95.5136 838.28 95.7997C 837.693 96.0858 837.084 96.2289 836.453 96.2289C 835.456 96.2289 834.66 95.9281 834.065 95.3265C 833.471 94.7249 833.174 93.9142 833.174 92.8944C 833.174 92.2194 833.313 91.6215 833.592 91.1006C 833.871 90.5797 834.252 90.1725 834.737 89.879C 835.221 89.5856 835.955 89.3692 836.938 89.2298C 838.258 89.039 839.227 88.8116 839.843 88.5475L 839.854 88.0412C 839.854 87.2415 839.711 86.6803 839.425 86.3575C 839.021 85.8879 838.401 85.6532 837.565 85.6532C 836.809 85.6532 836.244 85.8109 835.87 86.1264C 835.496 86.4345 835.221 87.0178 835.045 87.8762L 833.449 87.612C 833.676 86.3575 834.135 85.4441 834.825 84.8718C 835.522 84.2996 836.516 84.0134 837.807 84.0134C 838.812 84.0134 839.601 84.2042 840.173 84.5857C 840.745 84.9599 841.105 85.4257 841.252 85.9833C 841.406 86.5409 841.483 87.3553 841.483 88.4264L 841.483 91.0676C 841.483 92.9164 841.516 94.0829 841.582 94.5671C 841.655 95.044 841.794 95.5099 842 95.9648L 840.305 95.9648C 840.136 95.5613 840.026 95.0807 839.975 94.5231ZM 839.843 90.0992C 839.249 90.3926 838.365 90.6421 837.191 90.8475C 836.509 90.9649 836.032 91.1006 835.76 91.2547C 835.489 91.4014 835.276 91.6142 835.122 91.8929C 834.975 92.1644 834.902 92.4799 834.902 92.8394C 834.902 93.397 835.074 93.8445 835.419 94.182C 835.764 94.5121 836.241 94.6772 836.85 94.6772C 837.429 94.6772 837.954 94.5268 838.423 94.226C 838.9 93.9252 839.256 93.5254 839.491 93.0265C 839.726 92.5202 839.843 91.7866 839.843 90.8255L 839.843 90.0992Z"/>
<path id="path1_fill" fill-rule="evenodd" d="M 1222.24 2L 1222.24 0L 0 0L 0 2L 1222.24 2ZM 1233.94 2L 2644 2L 2644 0L 1233.94 0L 1233.94 2Z"/>
<path id="path2_fill" d="M 0.913718 1.97381C 0.84078 2.04971 0.764882 2.10687 0.68603 2.14532C 0.607175 2.18376 0.525365 2.20298 0.440595 2.20298C 0.306546 2.20298 0.199599 2.16256 0.119759 2.08174C 0.0399197 2.00091 0 1.892 0 1.75499C 0 1.66431 0.0187278 1.58397 0.0561833 1.51399C 0.0936388 1.44401 0.144894 1.3893 0.209948 1.34988C 0.275004 1.31045 0.373569 1.28137 0.505649 1.26265C 0.683073 1.23702 0.813182 1.20646 0.895977 1.17098L 0.897454 1.10297C 0.897454 0.995528 0.878233 0.920125 0.839795 0.876754C 0.78558 0.813671 0.702294 0.782129 0.589925 0.782129C 0.4884 0.782129 0.412505 0.803322 0.362234 0.845707C 0.311966 0.887106 0.275004 0.965467 0.251346 1.08079L 0.0369627 1.0453C 0.0675184 0.876754 0.129123 0.75404 0.221776 0.677156C 0.315414 0.600275 0.448976 0.561833 0.622452 0.561833C 0.75749 0.561833 0.86345 0.58746 0.94033 0.638714C 1.01721 0.688985 1.06551 0.751573 1.08523 0.826486C 1.10592 0.901398 1.11627 1.01081 1.11627 1.15472L 1.11627 1.50956C 1.11627 1.75795 1.12071 1.91467 1.12958 1.97972C 1.13944 2.04379 1.15817 2.10638 1.18577 2.16749L 0.958075 2.16749C 0.935405 2.11328 0.920618 2.04872 0.913718 1.97381ZM 0.895977 1.37945C 0.816136 1.41887 0.697365 1.45239 0.539657 1.47999C 0.44799 1.49576 0.383921 1.51399 0.34745 1.53469C 0.31098 1.5544 0.282396 1.58299 0.261694 1.62044C 0.241983 1.65691 0.232126 1.6993 0.232126 1.7476C 0.232126 1.82251 0.255289 1.88263 0.301617 1.92798C 0.347942 1.97233 0.412011 1.99451 0.493823 1.99451C 0.57169 1.99451 0.642165 1.9743 0.705248 1.93389C 0.769316 1.89348 0.817122 1.83976 0.848663 1.77273C 0.880205 1.70472 0.895977 1.60615 0.895977 1.47703L 0.895977 1.37945ZM 1.75765 2.16749L 1.75765 0.597318L 1.95429 0.597318L 1.95429 0.835358C 2.00456 0.724961 2.0504 0.652023 2.0918 0.616539C 2.13418 0.580068 2.18149 0.561833 2.23373 0.561833C 2.30667 0.561833 2.38109 0.590417 2.45699 0.647586L 2.38306 0.894498C 2.32885 0.856056 2.27612 0.836835 2.22486 0.836835C 2.17854 0.836835 2.13615 0.853098 2.09771 0.885626C 2.05927 0.918153 2.03216 0.963496 2.01639 1.02165C 1.98879 1.12317 1.97499 1.23111 1.97499 1.34544L 1.97499 2.16749L 1.75765 2.16749ZM 3.70899 2.70963L 3.70899 2.00042C 3.6745 2.06055 3.62619 2.10934 3.56408 2.1468C 3.50298 2.18425 3.44138 2.20298 3.37927 2.20298C 3.22552 2.20298 3.09245 2.13004 2.98008 1.98416C 2.86772 1.83828 2.81153 1.63276 2.81153 1.36762C 2.81153 1.13697 2.85885 0.94526 2.95347 0.792481C 3.0481 0.638714 3.18215 0.561833 3.35562 0.561833C 3.43546 0.561833 3.50645 0.582531 3.56852 0.62393C 3.63063 0.664344 3.68436 0.725455 3.72968 0.807265L 3.72968 0.597318L 3.92633 0.597318L 3.92633 2.70963L 3.70899 2.70963ZM 3.03479 1.37797C 3.03479 1.58201 3.07027 1.73429 3.14124 1.83483C 3.21221 1.93438 3.29698 1.98416 3.39556 1.98416C 3.48327 1.98416 3.56116 1.93635 3.62915 1.84074C 3.69715 1.74415 3.73116 1.60073 3.73116 1.4105C 3.73116 1.19464 3.69519 1.03446 3.62323 0.929982C 3.55227 0.824514 3.46749 0.77178 3.36894 0.77178C 3.27925 0.77178 3.20087 0.821066 3.13385 0.919633C 3.06781 1.01721 3.03479 1.16999 3.03479 1.37797ZM 5.41637 2.16749L 5.41637 1.93685C 5.36611 2.02556 5.30696 2.09209 5.23896 2.13644C 5.17093 2.1808 5.09406 2.20298 5.0083 2.20298C 4.90679 2.20298 4.82002 2.17587 4.74809 2.12166C 4.67613 2.06646 4.62785 1.99697 4.60319 1.91319C 4.57953 1.82941 4.56769 1.71507 4.56769 1.57018L 4.56769 0.597318L 4.78503 0.597318L 4.78503 1.46816C 4.78503 1.62981 4.79294 1.73823 4.80872 1.79343C 4.82547 1.84764 4.85552 1.89151 4.89889 1.92502C 4.94326 1.95755 4.99353 1.97381 5.04971 1.97381C 5.15418 1.97381 5.23994 1.93093 5.30696 1.84518C 5.36412 1.77125 5.39272 1.63572 5.39272 1.43859L 5.39272 0.597318L 5.61154 0.597318L 5.61154 2.16749L 5.41637 2.16749ZM 6.25586 0.306052L 6.25586 0L 6.4732 0L 6.4732 0.306052L 6.25586 0.306052ZM 6.25586 2.16749L 6.25586 0.597318L 6.4732 0.597318L 6.4732 2.16749L 6.25586 2.16749ZM 7.59807 1.92945L 7.62764 2.16454C 7.56752 2.18031 7.51328 2.18819 7.465 2.18819C 7.3891 2.18819 7.32797 2.17341 7.28164 2.14384C 7.23535 2.11328 7.20329 2.07188 7.18556 2.01964C 7.1688 1.9674 7.16042 1.86341 7.16042 1.70768L 7.16042 0.804308L 7.00075 0.804308L 7.00075 0.597318L 7.16042 0.597318L 7.16042 0.20847L 7.37777 0.048791L 7.37777 0.597318L 7.59807 0.597318L 7.59807 0.804308L 7.37777 0.804308L 7.37777 1.72246C 7.37777 1.80723 7.38416 1.86194 7.39698 1.88658C 7.41572 1.92206 7.45071 1.9398 7.50195 1.9398C 7.52661 1.9398 7.55864 1.93635 7.59807 1.92945ZM 8.98758 1.66184L 9.21229 1.69585C 9.17484 1.86341 9.10685 1.99007 9.00827 2.07583C 8.91067 2.16059 8.78945 2.20298 8.64454 2.20298C 8.46219 2.20298 8.31436 2.13398 8.20101 1.99599C 8.08864 1.85701 8.03245 1.65691 8.03245 1.39571C 8.03245 1.12465 8.08914 0.918153 8.20249 0.776218C 8.31681 0.633293 8.46121 0.561833 8.63569 0.561833C 8.80227 0.561833 8.94125 0.631817 9.05261 0.77178C 9.16401 0.911747 9.21969 1.1143 9.21969 1.37945L 9.21821 1.45042L 8.25719 1.45042C 8.26604 1.62685 8.30695 1.75992 8.3799 1.84962C 8.45284 1.93931 8.54156 1.98416 8.64602 1.98416C 8.80967 1.98416 8.92348 1.87672 8.98758 1.66184ZM 8.27048 1.2316L 8.98906 1.2316C 8.9792 1.09557 8.9501 0.994051 8.90182 0.927025C 8.83184 0.829443 8.74261 0.780652 8.63421 0.780652C 8.53661 0.780652 8.45334 0.821557 8.38434 0.90337C 8.31533 0.984194 8.27738 1.0936 8.27048 1.2316ZM 10.6343 1.59235L 10.8487 1.62636C 10.8241 1.81364 10.762 1.95656 10.6624 2.05513C 10.5638 2.15369 10.4451 2.20298 10.3061 2.20298C 10.1375 2.20298 9.99856 2.13398 9.88914 1.99599C 9.78074 1.85701 9.72651 1.65199 9.72651 1.38093C 9.72651 1.1079 9.78121 0.90337 9.89062 0.767346C 10.001 0.630336 10.1425 0.561833 10.315 0.561833C 10.448 0.561833 10.5599 0.603232 10.6506 0.686028C 10.7423 0.768823 10.8009 0.893017 10.8265 1.05861L 10.6151 1.09853C 10.5944 0.99208 10.5584 0.912733 10.5072 0.86049C 10.4559 0.807265 10.3943 0.780652 10.3223 0.780652C 10.2149 0.780652 10.1257 0.828457 10.0547 0.924068C 9.98476 1.01869 9.94977 1.1695 9.94977 1.37649C 9.94977 1.59038 9.98328 1.74513 10.0503 1.84074C 10.1183 1.93635 10.2051 1.98416 10.3105 1.98416C 10.3933 1.98416 10.4638 1.95262 10.522 1.88953C 10.5811 1.82547 10.6186 1.7264 10.6343 1.59235ZM 11.8213 1.92945L 11.8508 2.16454C 11.7907 2.18031 11.7365 2.18819 11.6882 2.18819C 11.6123 2.18819 11.5512 2.17341 11.5049 2.14384C 11.4586 2.11328 11.4265 2.07188 11.4088 2.01964C 11.392 1.9674 11.3836 1.86341 11.3836 1.70768L 11.3836 0.804308L 11.2239 0.804308L 11.2239 0.597318L 11.3836 0.597318L 11.3836 0.20847L 11.601 0.048791L 11.601 0.597318L 11.8213 0.597318L 11.8213 0.804308L 11.601 0.804308L 11.601 1.72246C 11.601 1.80723 11.6074 1.86194 11.6202 1.88658C 11.6389 1.92206 11.6739 1.9398 11.7252 1.9398C 11.7498 1.9398 11.7818 1.93635 11.8213 1.92945ZM 13.1738 2.16749L 13.1738 1.93685C 13.1235 2.02556 13.0644 2.09209 12.9964 2.13644C 12.9284 2.1808 12.8515 2.20298 12.7657 2.20298C 12.6642 2.20298 12.5775 2.17587 12.5055 2.12166C 12.4336 2.06646 12.3853 1.99697 12.3606 1.91319C 12.337 1.82941 12.3252 1.71507 12.3252 1.57018L 12.3252 0.597318L 12.5425 0.597318L 12.5425 1.46816C 12.5425 1.62981 12.5504 1.73823 12.5662 1.79343C 12.5829 1.84764 12.613 1.89151 12.6564 1.92502C 12.7007 1.95755 12.751 1.97381 12.8071 1.97381C 12.9116 1.97381 12.9974 1.93093 13.0644 1.84518C 13.1216 1.77125 13.1502 1.63572 13.1502 1.43859L 13.1502 0.597318L 13.369 0.597318L 13.369 2.16749L 13.1738 2.16749ZM 14.0133 2.16749L 14.0133 0.597318L 14.2099 0.597318L 14.2099 0.835358C 14.2602 0.724961 14.3061 0.652023 14.3475 0.616539C 14.3898 0.580068 14.4371 0.561833 14.4894 0.561833C 14.5623 0.561833 14.6368 0.590417 14.7127 0.647586L 14.6387 0.894498C 14.5845 0.856056 14.5318 0.836835 14.4805 0.836835C 14.4342 0.836835 14.3918 0.853098 14.3534 0.885626C 14.3149 0.918153 14.2878 0.963496 14.2721 1.02165C 14.2445 1.12317 14.2306 1.23111 14.2306 1.34544L 14.2306 2.16749L 14.0133 2.16749ZM 15.9839 1.97381C 15.9109 2.04971 15.835 2.10687 15.7562 2.14532C 15.6773 2.18376 15.5955 2.20298 15.5107 2.20298C 15.3767 2.20298 15.2697 2.16256 15.1899 2.08174C 15.1101 2.00091 15.0702 1.892 15.0702 1.75499C 15.0702 1.66431 15.0889 1.58397 15.1264 1.51399C 15.1638 1.44401 15.215 1.3893 15.2801 1.34988C 15.3451 1.31045 15.4437 1.28137 15.5758 1.26265C 15.7532 1.23702 15.8833 1.20646 15.9661 1.17098L 15.9676 1.10297C 15.9676 0.995528 15.9484 0.920125 15.91 0.876754C 15.8557 0.813671 15.7725 0.782129 15.6601 0.782129C 15.5585 0.782129 15.4826 0.803322 15.4324 0.845707C 15.3821 0.887106 15.3451 0.965467 15.3215 1.08079L 15.1071 1.0453C 15.1377 0.876754 15.1993 0.75404 15.2919 0.677156C 15.3856 0.600275 15.5191 0.561833 15.6926 0.561833C 15.8276 0.561833 15.9336 0.58746 16.0105 0.638714C 16.0874 0.688985 16.1357 0.751573 16.1554 0.826486C 16.1761 0.901398 16.1864 1.01081 16.1864 1.15472L 16.1864 1.50956C 16.1864 1.75795 16.1909 1.91467 16.1997 1.97972C 16.2096 2.04379 16.2283 2.10638 16.2559 2.16749L 16.0282 2.16749C 16.0055 2.11328 15.9908 2.04872 15.9839 1.97381ZM 15.9661 1.37945C 15.8863 1.41887 15.7675 1.45239 15.6098 1.47999C 15.5181 1.49576 15.4541 1.51399 15.4176 1.53469C 15.3811 1.5544 15.3525 1.58299 15.3319 1.62044C 15.3121 1.65691 15.3023 1.6993 15.3023 1.7476C 15.3023 1.82251 15.3255 1.88263 15.3718 1.92798C 15.4181 1.97233 15.4822 1.99451 15.564 1.99451C 15.6419 1.99451 15.7123 1.9743 15.7754 1.93389C 15.8395 1.89348 15.8873 1.83976 15.9188 1.77273C 15.9504 1.70472 15.9661 1.60615 15.9661 1.47703L 15.9661 1.37945Z"/>
<path id="path3_fill" d="M 5.1749 9.91851C 8.03291 9.91851 10.3498 7.69815 10.3498 4.95924C 10.3498 2.22033 8.03291 2.96602e-15 5.1749 2.96602e-15C 2.31687 2.96602e-15 -6.99949e-14 2.22033 -6.99949e-14 4.95924C -6.99949e-14 7.69815 2.31687 9.91851 5.1749 9.91851Z"/>
<path id="path4_fill" d="M 40 73.0417L 31.941 73.0417L 31.941 55.217C 31.941 51.3917 31.7854 48.8411 31.4837 47.567C 31.1847 46.3043 30.6082 45.326 29.7758 44.6443C 28.9491 43.9674 27.9955 43.6215 26.937 43.6215C 25.578 43.6215 24.3361 44.0643 23.2322 44.9448C 22.1359 45.8195 21.3553 47.0381 20.9108 48.5894C 20.4663 50.1408 20.2374 53.0648 20.2374 57.3703L 20.2374 73.0417L 0 73.0417L 0 0L 8.00301 0L 8.00301 66.0364L 12.1062 66.0364L 12.1062 36.1229L 20.3108 36.1229L 20.3108 42.3945C 21.6461 40.2776 22.4867 38.6899 24.1706 37.6315C 25.8544 36.573 27.7068 36.0438 29.7518 36.0438C 32.1335 36.0438 34.1335 36.6662 35.7659 37.8963C 37.4041 39.1307 38.5204 40.7227 39.1458 42.6593C 39.7713 44.5959 40.0838 47.3994 40.0838 51.0552L 40 73.0417Z"/>
</defs>
</svg>
