<svg width="2104" height="103" viewBox="0 0 2104 103" version="1.1" xmlns="http://www.w3.org/2000/svg" xmlns:xlink="http://www.w3.org/1999/xlink" xmlns:figma="http://www.figma.com/figma/ns">
<title>fondo</title>
<desc>Created using Figma</desc>
<g id="Canvas" transform="translate(1343 513)" figma:type="canvas">
<mask id="mask0_alpha" mask-type="alpha">
<path d="M -1343 -513L 761 -513L 761 -410.775L -1343 -410.775L -1343 -513Z" fill="#FFFFFF"/>
</mask>
<g id="fondo" mask="url(#mask0_alpha)" figma:type="frame">
<g id="Subtract" figma:type="vector-operation">
<use xlink:href="#path0_fill" transform="translate(-1343 -513)" fill="#000000" fill-opacity="0.8"/>
</g>
<g id="Subtract" figma:type="vector-operation">
<use xlink:href="#path1_fill" transform="translate(-1883 -413)" fill="#FFFFFF" fill-opacity="0.7"/>
</g>
<g id="logo_web" figma:type="frame">
<g id="Canvas" figma:type="frame">
<g id="Capa x0020 1" figma:type="frame">
<g id="arquitectura" figma:type="frame">
<g id="Vector" figma:type="vector">
<use xlink:href="#path2_fill" transform="matrix(7.44325 0 0 7.44325 -621.997 -433.168)" fill="#FFFFFF" fill-opacity="0.7"/>
</g>
</g>
<g id="54564800" figma:type="frame">
<g id="54568632" figma:type="frame">
<g id="Vector" figma:type="vector">
<use xlink:href="#path3_fill" transform="translate(-637.207 -427.04)" fill="#F49219"/>
</g>
</g>
<g id="54565104" figma:type="frame">
<g id="Vector" figma:type="vector">
<use xlink:href="#path4_fill" transform="translate(-681 -486.042)" fill="#FFFFFF" fill-opacity="0.7"/>
</g>
</g>
</g>
</g>
</g>
</g>
</g>
</g>
<defs>
<path id="path0_fill" fill-rule="evenodd" d="M 2104 0L 0 0L 0 100L 682.237 100L 682.237 84.3676C 682.177 81.5375 682.231 78.3945 682.91 75.593C 683.217 74.4042 683.858 72.9348 685.233 71.9461C 686.195 71.1305 686.885 70.7143 688.939 70.6198C 690.059 70.6118 690.831 70.8535 691.776 71.6423C 692.568 72.1685 693.261 73.2676 693.482 74.5658C 693.983 76.9167 693.971 78.258 693.95 80.4548C 693.945 80.9837 693.94 81.5621 693.941 82.2162L 693.941 100L 2104 100L 2104 0Z"/>
<path id="path1_fill" fill-rule="evenodd" d="M 1222.24 2L 1222.24 0L 0 0L 0 2L 1222.24 2ZM 1233.94 2L 2644 2L 2644 0L 1233.94 0L 1233.94 2Z"/>
<path id="path2_fill" d="M 0.913718 1.97381C 0.84078 2.04971 0.764882 2.10687 0.68603 2.14532C 0.607175 2.18376 0.525365 2.20298 0.440595 2.20298C 0.306546 2.20298 0.199599 2.16256 0.119759 2.08174C 0.0399197 2.00091 0 1.892 0 1.75499C 0 1.66431 0.0187278 1.58397 0.0561833 1.51399C 0.0936388 1.44401 0.144894 1.3893 0.209948 1.34988C 0.275004 1.31045 0.373569 1.28137 0.505649 1.26265C 0.683073 1.23702 0.813182 1.20646 0.895977 1.17098L 0.897454 1.10297C 0.897454 0.995528 0.878233 0.920125 0.839795 0.876754C 0.78558 0.813671 0.702294 0.782129 0.589925 0.782129C 0.4884 0.782129 0.412505 0.803322 0.362234 0.845707C 0.311966 0.887106 0.275004 0.965467 0.251346 1.08079L 0.0369627 1.0453C 0.0675184 0.876754 0.129123 0.75404 0.221776 0.677156C 0.315414 0.600275 0.448976 0.561833 0.622452 0.561833C 0.75749 0.561833 0.86345 0.58746 0.94033 0.638714C 1.01721 0.688985 1.06551 0.751573 1.08523 0.826486C 1.10592 0.901398 1.11627 1.01081 1.11627 1.15472L 1.11627 1.50956C 1.11627 1.75795 1.12071 1.91467 1.12958 1.97972C 1.13944 2.04379 1.15817 2.10638 1.18577 2.16749L 0.958075 2.16749C 0.935405 2.11328 0.920618 2.04872 0.913718 1.97381ZM 0.895977 1.37945C 0.816136 1.41887 0.697365 1.45239 0.539657 1.47999C 0.44799 1.49576 0.383921 1.51399 0.34745 1.53469C 0.31098 1.5544 0.282396 1.58299 0.261694 1.62044C 0.241983 1.65691 0.232126 1.6993 0.232126 1.7476C 0.232126 1.82251 0.255289 1.88263 0.301617 1.92798C 0.347942 1.97233 0.412011 1.99451 0.493823 1.99451C 0.57169 1.99451 0.642165 1.9743 0.705248 1.93389C 0.769316 1.89348 0.817122 1.83976 0.848663 1.77273C 0.880205 1.70472 0.895977 1.60615 0.895977 1.47703L 0.895977 1.37945ZM 1.75765 2.16749L 1.75765 0.597318L 1.95429 0.597318L 1.95429 0.835358C 2.00456 0.724961 2.0504 0.652023 2.0918 0.616539C 2.13418 0.580068 2.18149 0.561833 2.23373 0.561833C 2.30667 0.561833 2.38109 0.590417 2.45699 0.647586L 2.38306 0.894498C 2.32885 0.856056 2.27612 0.836835 2.22486 0.836835C 2.17854 0.836835 2.13615 0.853098 2.09771 0.885626C 2.05927 0.918153 2.03216 0.963496 2.01639 1.02165C 1.98879 1.12317 1.97499 1.23111 1.97499 1.34544L 1.97499 2.16749L 1.75765 2.16749ZM 3.70899 2.70963L 3.70899 2.00042C 3.6745 2.06055 3.62619 2.10934 3.56408 2.1468C 3.50298 2.18425 3.44138 2.20298 3.37927 2.20298C 3.22552 2.20298 3.09245 2.13004 2.98008 1.98416C 2.86772 1.83828 2.81153 1.63276 2.81153 1.36762C 2.81153 1.13697 2.85885 0.94526 2.95347 0.792481C 3.0481 0.638714 3.18215 0.561833 3.35562 0.561833C 3.43546 0.561833 3.50645 0.582531 3.56852 0.62393C 3.63063 0.664344 3.68436 0.725455 3.72968 0.807265L 3.72968 0.597318L 3.92633 0.597318L 3.92633 2.70963L 3.70899 2.70963ZM 3.03479 1.37797C 3.03479 1.58201 3.07027 1.73429 3.14124 1.83483C 3.21221 1.93438 3.29698 1.98416 3.39556 1.98416C 3.48327 1.98416 3.56116 1.93635 3.62915 1.84074C 3.69715 1.74415 3.73116 1.60073 3.73116 1.4105C 3.73116 1.19464 3.69519 1.03446 3.62323 0.929982C 3.55227 0.824514 3.46749 0.77178 3.36894 0.77178C 3.27925 0.77178 3.20087 0.821066 3.13385 0.919633C 3.06781 1.01721 3.03479 1.16999 3.03479 1.37797ZM 5.41637 2.16749L 5.41637 1.93685C 5.36611 2.02556 5.30696 2.09209 5.23896 2.13644C 5.17093 2.1808 5.09406 2.20298 5.0083 2.20298C 4.90679 2.20298 4.82002 2.17587 4.74809 2.12166C 4.67613 2.06646 4.62785 1.99697 4.60319 1.91319C 4.57953 1.82941 4.56769 1.71507 4.56769 1.57018L 4.56769 0.597318L 4.78503 0.597318L 4.78503 1.46816C 4.78503 1.62981 4.79294 1.73823 4.80872 1.79343C 4.82547 1.84764 4.85552 1.89151 4.89889 1.92502C 4.94326 1.95755 4.99353 1.97381 5.04971 1.97381C 5.15418 1.97381 5.23994 1.93093 5.30696 1.84518C 5.36412 1.77125 5.39272 1.63572 5.39272 1.43859L 5.39272 0.597318L 5.61154 0.597318L 5.61154 2.16749L 5.41637 2.16749ZM 6.25586 0.306052L 6.25586 0L 6.4732 0L 6.4732 0.306052L 6.25586 0.306052ZM 6.25586 2.16749L 6.25586 0.597318L 6.4732 0.597318L 6.4732 2.16749L 6.25586 2.16749ZM 7.59807 1.92945L 7.62764 2.16454C 7.56752 2.18031 7.51328 2.18819 7.465 2.18819C 7.3891 2.18819 7.32797 2.17341 7.28164 2.14384C 7.23535 2.11328 7.20329 2.07188 7.18556 2.01964C 7.1688 1.9674 7.16042 1.86341 7.16042 1.70768L 7.16042 0.804308L 7.00075 0.804308L 7.00075 0.597318L 7.16042 0.597318L 7.16042 0.20847L 7.37777 0.048791L 7.37777 0.597318L 7.59807 0.597318L 7.59807 0.804308L 7.37777 0.804308L 7.37777 1.72246C 7.37777 1.80723 7.38416 1.86194 7.39698 1.88658C 7.41572 1.92206 7.45071 1.9398 7.50195 1.9398C 7.52661 1.9398 7.55864 1.93635 7.59807 1.92945ZM 8.98758 1.66184L 9.21229 1.69585C 9.17484 1.86341 9.10685 1.99007 9.00827 2.07583C 8.91067 2.16059 8.78945 2.20298 8.64454 2.20298C 8.46219 2.20298 8.31436 2.13398 8.20101 1.99599C 8.08864 1.85701 8.03245 1.65691 8.03245 1.39571C 8.03245 1.12465 8.08914 0.918153 8.20249 0.776218C 8.31681 0.633293 8.46121 0.561833 8.63569 0.561833C 8.80227 0.561833 8.94125 0.631817 9.05261 0.77178C 9.16401 0.911747 9.21969 1.1143 9.21969 1.37945L 9.21821 1.45042L 8.25719 1.45042C 8.26604 1.62685 8.30695 1.75992 8.3799 1.84962C 8.45284 1.93931 8.54156 1.98416 8.64602 1.98416C 8.80967 1.98416 8.92348 1.87672 8.98758 1.66184ZM 8.27048 1.2316L 8.98906 1.2316C 8.9792 1.09557 8.9501 0.994051 8.90182 0.927025C 8.83184 0.829443 8.74261 0.780652 8.63421 0.780652C 8.53661 0.780652 8.45334 0.821557 8.38434 0.90337C 8.31533 0.984194 8.27738 1.0936 8.27048 1.2316ZM 10.6343 1.59235L 10.8487 1.62636C 10.8241 1.81364 10.762 1.95656 10.6624 2.05513C 10.5638 2.15369 10.4451 2.20298 10.3061 2.20298C 10.1375 2.20298 9.99856 2.13398 9.88914 1.99599C 9.78074 1.85701 9.72651 1.65199 9.72651 1.38093C 9.72651 1.1079 9.78121 0.90337 9.89062 0.767346C 10.001 0.630336 10.1425 0.561833 10.315 0.561833C 10.448 0.561833 10.5599 0.603232 10.6506 0.686028C 10.7423 0.768823 10.8009 0.893017 10.8265 1.05861L 10.6151 1.09853C 10.5944 0.99208 10.5584 0.912733 10.5072 0.86049C 10.4559 0.807265 10.3943 0.780652 10.3223 0.780652C 10.2149 0.780652 10.1257 0.828457 10.0547 0.924068C 9.98476 1.01869 9.94977 1.1695 9.94977 1.37649C 9.94977 1.59038 9.98328 1.74513 10.0503 1.84074C 10.1183 1.93635 10.2051 1.98416 10.3105 1.98416C 10.3933 1.98416 10.4638 1.95262 10.522 1.88953C 10.5811 1.82547 10.6186 1.7264 10.6343 1.59235ZM 11.8213 1.92945L 11.8508 2.16454C 11.7907 2.18031 11.7365 2.18819 11.6882 2.18819C 11.6123 2.18819 11.5512 2.17341 11.5049 2.14384C 11.4586 2.11328 11.4265 2.07188 11.4088 2.01964C 11.392 1.9674 11.3836 1.86341 11.3836 1.70768L 11.3836 0.804308L 11.2239 0.804308L 11.2239 0.597318L 11.3836 0.597318L 11.3836 0.20847L 11.601 0.048791L 11.601 0.597318L 11.8213 0.597318L 11.8213 0.804308L 11.601 0.804308L 11.601 1.72246C 11.601 1.80723 11.6074 1.86194 11.6202 1.88658C 11.6389 1.92206 11.6739 1.9398 11.7252 1.9398C 11.7498 1.9398 11.7818 1.93635 11.8213 1.92945ZM 13.1738 2.16749L 13.1738 1.93685C 13.1235 2.02556 13.0644 2.09209 12.9964 2.13644C 12.9284 2.1808 12.8515 2.20298 12.7657 2.20298C 12.6642 2.20298 12.5775 2.17587 12.5055 2.12166C 12.4336 2.06646 12.3853 1.99697 12.3606 1.91319C 12.337 1.82941 12.3252 1.71507 12.3252 1.57018L 12.3252 0.597318L 12.5425 0.597318L 12.5425 1.46816C 12.5425 1.62981 12.5504 1.73823 12.5662 1.79343C 12.5829 1.84764 12.613 1.89151 12.6564 1.92502C 12.7007 1.95755 12.751 1.97381 12.8071 1.97381C 12.9116 1.97381 12.9974 1.93093 13.0644 1.84518C 13.1216 1.77125 13.1502 1.63572 13.1502 1.43859L 13.1502 0.597318L 13.369 0.597318L 13.369 2.16749L 13.1738 2.16749ZM 14.0133 2.16749L 14.0133 0.597318L 14.2099 0.597318L 14.2099 0.835358C 14.2602 0.724961 14.3061 0.652023 14.3475 0.616539C 14.3898 0.580068 14.4371 0.561833 14.4894 0.561833C 14.5623 0.561833 14.6368 0.590417 14.7127 0.647586L 14.6387 0.894498C 14.5845 0.856056 14.5318 0.836835 14.4805 0.836835C 14.4342 0.836835 14.3918 0.853098 14.3534 0.885626C 14.3149 0.918153 14.2878 0.963496 14.2721 1.02165C 14.2445 1.12317 14.2306 1.23111 14.2306 1.34544L 14.2306 2.16749L 14.0133 2.16749ZM 15.9839 1.97381C 15.9109 2.04971 15.835 2.10687 15.7562 2.14532C 15.6773 2.18376 15.5955 2.20298 15.5107 2.20298C 15.3767 2.20298 15.2697 2.16256 15.1899 2.08174C 15.1101 2.00091 15.0702 1.892 15.0702 1.75499C 15.0702 1.66431 15.0889 1.58397 15.1264 1.51399C 15.1638 1.44401 15.215 1.3893 15.2801 1.34988C 15.3451 1.31045 15.4437 1.28137 15.5758 1.26265C 15.7532 1.23702 15.8833 1.20646 15.9661 1.17098L 15.9676 1.10297C 15.9676 0.995528 15.9484 0.920125 15.91 0.876754C 15.8557 0.813671 15.7725 0.782129 15.6601 0.782129C 15.5585 0.782129 15.4826 0.803322 15.4324 0.845707C 15.3821 0.887106 15.3451 0.965467 15.3215 1.08079L 15.1071 1.0453C 15.1377 0.876754 15.1993 0.75404 15.2919 0.677156C 15.3856 0.600275 15.5191 0.561833 15.6926 0.561833C 15.8276 0.561833 15.9336 0.58746 16.0105 0.638714C 16.0874 0.688985 16.1357 0.751573 16.1554 0.826486C 16.1761 0.901398 16.1864 1.01081 16.1864 1.15472L 16.1864 1.50956C 16.1864 1.75795 16.1909 1.91467 16.1997 1.97972C 16.2096 2.04379 16.2283 2.10638 16.2559 2.16749L 16.0282 2.16749C 16.0055 2.11328 15.9908 2.04872 15.9839 1.97381ZM 15.9661 1.37945C 15.8863 1.41887 15.7675 1.45239 15.6098 1.47999C 15.5181 1.49576 15.4541 1.51399 15.4176 1.53469C 15.3811 1.5544 15.3525 1.58299 15.3319 1.62044C 15.3121 1.65691 15.3023 1.6993 15.3023 1.7476C 15.3023 1.82251 15.3255 1.88263 15.3718 1.92798C 15.4181 1.97233 15.4822 1.99451 15.564 1.99451C 15.6419 1.99451 15.7123 1.9743 15.7754 1.93389C 15.8395 1.89348 15.8873 1.83976 15.9188 1.77273C 15.9504 1.70472 15.9661 1.60615 15.9661 1.47703L 15.9661 1.37945Z"/>
<path id="path3_fill" d="M 5.1749 9.91851C 8.03291 9.91851 10.3498 7.69815 10.3498 4.95924C 10.3498 2.22033 8.03291 2.96602e-15 5.1749 2.96602e-15C 2.31687 2.96602e-15 -6.99949e-14 2.22033 -6.99949e-14 4.95924C -6.99949e-14 7.69815 2.31687 9.91851 5.1749 9.91851Z"/>
<path id="path4_fill" d="M 40 73.0417L 31.941 73.0417L 31.941 55.217C 31.941 51.3917 31.7854 48.8411 31.4837 47.567C 31.1847 46.3043 30.6082 45.326 29.7758 44.6443C 28.9491 43.9674 27.9955 43.6215 26.937 43.6215C 25.578 43.6215 24.3361 44.0643 23.2322 44.9448C 22.1359 45.8195 21.3553 47.0381 20.9108 48.5894C 20.4663 50.1408 20.2374 53.0648 20.2374 57.3703L 20.2374 73.0417L 0 73.0417L 0 0L 8.00301 0L 8.00301 66.0364L 12.1062 66.0364L 12.1062 36.1229L 20.3108 36.1229L 20.3108 42.3945C 21.6461 40.2776 22.4867 38.6899 24.1706 37.6315C 25.8544 36.573 27.7068 36.0438 29.7518 36.0438C 32.1335 36.0438 34.1335 36.6662 35.7659 37.8963C 37.4041 39.1307 38.5204 40.7227 39.1458 42.6593C 39.7713 44.5959 40.0838 47.3994 40.0838 51.0552L 40 73.0417Z"/>
</defs>
</svg>
